# xmcd
#
# Track frame offsets: 
#        150
#        14364
#        30540
#        47123
#        61484
#        77991
#        102050
#        121842
#        141748
#        165374
#        183319
#
# Disc length: 2655 seconds
#
# Revision: 0
# Processed by: cddbd v1.5.2PL0 Copyright (c) Steve Scherf et al.
# Submitted via: ExactAudioCopy v1.0b4
#
DISCID=8e0a5d0b
DTITLE=Duffy Kane - Dead Man Walkin'
DYEAR=2014
DGENRE=Blues
TTITLE0=Roadhouse Boogie Woogie
TTITLE1=Danny Buchanan
TTITLE2=Dead Man Walkin'
TTITLE3=Duffy's Breakdown
TTITLE4=Sweeter Than
TTITLE5=Son Of The Republic
TTITLE6=America The Beautiful
TTITLE7=Eyes Of The World
TTITLE8=Growing Up Tree
TTITLE9=Why My Road
TTITLE10=Truck Driving Man
EXTD=
EXTT0=
EXTT1=
EXTT2=
EXTT3=
EXTT4=
EXTT5=
EXTT6=
EXTT7=
EXTT8=
EXTT9=
EXTT10=
PLAYORDER=
